<svg width="48" height="48" viewBox="0 0 48 48" fill="none" xmlns="http://www.w3.org/2000/svg">
<g clip-path="url(#clip0_2_57)">
<path d="M46 44H10C8.4087 44 6.88258 43.3679 5.75736 42.2426C4.63214 41.1174 4 39.5913 4 38V2C4 1.46957 3.78929 0.960859 3.41421 0.585786C3.03914 0.210714 2.53043 0 2 0C1.46957 0 0.960859 0.210714 0.585786 0.585786C0.210714 0.960859 0 1.46957 0 2L0 38C0.00317572 40.6512 1.05776 43.1929 2.93244 45.0676C4.80712 46.9422 7.34881 47.9968 10 48H46C46.5304 48 47.0391 47.7893 47.4142 47.4142C47.7893 47.0391 48 46.5304 48 46C48 45.4696 47.7893 44.9609 47.4142 44.5858C47.0391 44.2107 46.5304 44 46 44Z" fill="#343434"/>
<path d="M12.0003 39.9999C12.5307 39.9999 13.0394 39.7891 13.4145 39.4141C13.7896 39.039 14.0003 38.5303 14.0003 37.9999V23.9999C14.0003 23.4694 13.7896 22.9607 13.4145 22.5856C13.0394 22.2106 12.5307 21.9999 12.0003 21.9999C11.4699 21.9999 10.9612 22.2106 10.5861 22.5856C10.211 22.9607 10.0003 23.4694 10.0003 23.9999V37.9999C10.0003 38.5303 10.211 39.039 10.5861 39.4141C10.9612 39.7891 11.4699 39.9999 12.0003 39.9999Z" fill="#343434"/>
<path d="M19.9997 20V38C19.9997 38.5304 20.2104 39.0391 20.5855 39.4142C20.9606 39.7893 21.4693 40 21.9997 40C22.5301 40 23.0389 39.7893 23.4139 39.4142C23.789 39.0391 23.9997 38.5304 23.9997 38V20C23.9997 19.4696 23.789 18.9609 23.4139 18.5858C23.0389 18.2107 22.5301 18 21.9997 18C21.4693 18 20.9606 18.2107 20.5855 18.5858C20.2104 18.9609 19.9997 19.4696 19.9997 20Z" fill="#343434"/>
<path d="M30 26V38C30 38.5304 30.2107 39.0391 30.5858 39.4142C30.9609 39.7893 31.4696 40 32 40C32.5304 40 33.0392 39.7893 33.4142 39.4142C33.7893 39.0391 34 38.5304 34 38V26C34 25.4696 33.7893 24.9609 33.4142 24.5858C33.0392 24.2107 32.5304 24 32 24C31.4696 24 30.9609 24.2107 30.5858 24.5858C30.2107 24.9609 30 25.4696 30 26Z" fill="#343434"/>
<path d="M40.0004 17.9998V37.9998C40.0004 38.5303 40.2111 39.039 40.5862 39.414C40.9612 39.7891 41.4699 39.9998 42.0004 39.9998C42.5308 39.9998 43.0395 39.7891 43.4146 39.414C43.7897 39.039 44.0004 38.5303 44.0004 37.9998V17.9998C44.0004 17.4694 43.7897 16.9607 43.4146 16.5856C43.0395 16.2105 42.5308 15.9998 42.0004 15.9998C41.4699 15.9998 40.9612 16.2105 40.5862 16.5856C40.2111 16.9607 40.0004 17.4694 40.0004 17.9998Z" fill="#343434"/>
<path d="M11.9997 17.9999C12.5301 17.9998 13.0387 17.789 13.4137 17.4139L20.5857 10.2419C20.9669 9.87872 21.4732 9.67616 21.9997 9.67616C22.5262 9.67616 23.0325 9.87872 23.4137 10.2419L27.7577 14.5859C28.8828 15.7107 30.4087 16.3426 31.9997 16.3426C33.5907 16.3426 35.1165 15.7107 36.2417 14.5859L47.4137 3.41387C47.778 3.03667 47.9796 2.53146 47.975 2.00707C47.9705 1.48268 47.7601 0.981051 47.3893 0.610235C47.0185 0.239419 46.5169 0.0290808 45.9925 0.024524C45.4681 0.0199672 44.9629 0.221556 44.5857 0.585872L33.4137 11.7559C33.0386 12.1308 32.53 12.3414 31.9997 12.3414C31.4693 12.3414 30.9607 12.1308 30.5857 11.7559L26.2417 7.41387C25.1165 6.28905 23.5907 5.65715 21.9997 5.65715C20.4087 5.65715 18.8828 6.28905 17.7577 7.41387L10.5857 14.5859C10.306 14.8656 10.1156 15.2219 10.0385 15.6098C9.96136 15.9977 10.001 16.3998 10.1523 16.7652C10.3036 17.1306 10.5599 17.4429 10.8887 17.6627C11.2176 17.8824 11.6042 17.9998 11.9997 17.9999V17.9999Z" fill="#343434"/>
</g>
<defs>
<clipPath id="clip0_2_57">
<rect width="48" height="48" fill="white"/>
</clipPath>
</defs>
</svg>
