<svg width="48" height="48" viewBox="0 0 48 48" fill="none" xmlns="http://www.w3.org/2000/svg">
<g clip-path="url(#clip0_2_48)">
<path d="M34.0003 -1.52588e-05H16.0003V32H44.0003V9.99998C44.0003 7.34782 42.9467 4.80428 41.0714 2.92892C39.196 1.05355 36.6525 -1.52588e-05 34.0003 -1.52588e-05V-1.52588e-05Z" fill="#343434"/>
<path d="M8.79029 32.1221C9.18848 32.0407 9.59387 31.9998 10.0003 32H12.0003V0.20005C9.74156 0.661111 7.7115 1.88841 6.25368 3.67424C4.79586 5.46008 3.99982 7.69475 4.00029 10.0001V34.05C5.3984 32.9952 7.05124 32.3299 8.79029 32.1221V32.1221Z" fill="#343434"/>
<path d="M44.0003 36H10.0003C8.40901 36 6.88288 36.6321 5.75766 37.7574C4.63245 38.8826 4.00031 40.4087 4.00031 42C4.00031 43.5913 4.63245 45.1174 5.75766 46.2426C6.88288 47.3679 8.40901 48 10.0003 48H34.0003C35.3135 48 36.6139 47.7413 37.8271 47.2388C39.0404 46.7362 40.1428 45.9997 41.0714 45.0711C42 44.1425 42.7366 43.0401 43.2391 41.8268C43.7416 40.6136 44.0003 39.3132 44.0003 38V36Z" fill="#343434"/>
</g>
<defs>
<clipPath id="clip0_2_48">
<rect width="48" height="48" fill="white"/>
</clipPath>
</defs>
</svg>
