<svg width="48" height="48" viewBox="0 0 48 48" fill="none" xmlns="http://www.w3.org/2000/svg">
<path fill-rule="evenodd" clip-rule="evenodd" d="M20.4185 37.7045C20.6534 40.9256 23.0663 43.4202 26.2818 43.7223C27.956 43.8796 29.9178 44 32.0001 44C34.0823 44 36.0442 43.8796 37.7184 43.7223C40.9338 43.4202 43.3467 40.9256 43.5816 37.7045C43.8017 34.6864 44.0001 30.236 44.0001 24C44.0001 17.764 43.8017 13.3137 43.5816 10.2955C43.3467 7.07441 40.9338 4.5798 37.7184 4.27772C36.0442 4.12044 34.0823 4 32.0001 4C29.9178 4 27.956 4.12044 26.2818 4.27772C23.0663 4.5798 20.6534 7.07441 20.4185 10.2955C20.2228 12.9805 20.0441 16.7991 20.0071 22H30C31.1046 22 32 22.8954 32 24C32 25.1046 31.1046 26 30 26H20.0071C20.0441 31.2009 20.2228 35.0195 20.4185 37.7045Z" fill="#343434"/>
<path fill-rule="evenodd" clip-rule="evenodd" d="M14.4142 29.5858C15.1953 30.3668 15.1953 31.6332 14.4142 32.4142C13.6332 33.1953 12.3668 33.1953 11.5858 32.4142L4.58579 25.4142C3.80474 24.6332 3.80474 23.3668 4.58579 22.5858L11.5858 15.5858C12.3668 14.8047 13.6332 14.8047 14.4142 15.5858C15.1953 16.3668 15.1953 17.6332 14.4142 18.4142L10.8284 22H20V26L10.8284 26L14.4142 29.5858Z" fill="#343434"/>
</svg>
