<svg width="48" height="48" viewBox="0 0 48 48" fill="none" xmlns="http://www.w3.org/2000/svg">
<g clip-path="url(#clip0_2_43)">
<path d="M24.0001 18C24.0001 17.4696 24.2109 16.9608 24.5859 16.5858C24.961 16.2107 25.4697 16 26.0001 16C26.5306 16 27.0393 16.2107 27.4144 16.5858C27.7894 16.9608 28.0001 17.4696 28.0001 18C28.0001 18.5304 27.7894 19.0391 27.4144 19.4142C27.0393 19.7893 26.5306 20 26.0001 20C25.4697 20 24.961 19.7893 24.5859 19.4142C24.2109 19.0391 24.0001 18.5304 24.0001 18ZM46.0001 9.99998V38C45.997 40.6512 44.9424 43.1929 43.0677 45.0675C41.193 46.9422 38.6513 47.9968 36.0001 48H16.0001C14.0566 47.9974 12.1559 47.4286 10.5306 46.363C8.90518 45.2974 7.62555 43.7813 6.84814 42H4.00014C3.4697 42 2.961 41.7893 2.58592 41.4142C2.21085 41.0391 2.00014 40.5304 2.00014 40C2.00014 39.4696 2.21085 38.9608 2.58592 38.5858C2.961 38.2107 3.4697 38 4.00014 38H6.00014V34H4.00014C3.4697 34 2.961 33.7893 2.58592 33.4142C2.21085 33.0391 2.00014 32.5304 2.00014 32C2.00014 31.4696 2.21085 30.9608 2.58592 30.5858C2.961 30.2107 3.4697 30 4.00014 30H6.00014V26H4.00014C3.4697 26 2.961 25.7893 2.58592 25.4142C2.21085 25.0391 2.00014 24.5304 2.00014 24C2.00014 23.4696 2.21085 22.9608 2.58592 22.5858C2.961 22.2107 3.4697 22 4.00014 22H6.00014V18H4.00014C3.4697 18 2.961 17.7893 2.58592 17.4142C2.21085 17.0391 2.00014 16.5304 2.00014 16C2.00014 15.4696 2.21085 14.9608 2.58592 14.5858C2.961 14.2107 3.4697 14 4.00014 14H6.00014V9.99998H4.00014C3.4697 9.99998 2.961 9.78927 2.58592 9.4142C2.21085 9.03913 2.00014 8.53042 2.00014 7.99998C2.00014 7.46955 2.21085 6.96084 2.58592 6.58577C2.961 6.2107 3.4697 5.99998 4.00014 5.99998H6.84814C7.62555 4.21871 8.90518 2.70257 10.5306 1.63698C12.1559 0.571396 14.0566 0.00254149 16.0001 -1.52588e-05L36.0001 -1.52588e-05C38.6513 0.00316046 41.193 1.05775 43.0677 2.93242C44.9424 4.8071 45.997 7.34879 46.0001 9.99998V9.99998ZM20.0001 18C20.0001 19.5913 20.6323 21.1174 21.7575 22.2426C22.8827 23.3678 24.4088 24 26.0001 24C27.5914 24 29.1176 23.3678 30.2428 22.2426C31.368 21.1174 32.0001 19.5913 32.0001 18C32.0001 16.4087 31.368 14.8826 30.2428 13.7573C29.1176 12.6321 27.5914 12 26.0001 12C24.4088 12 22.8827 12.6321 21.7575 13.7573C20.6323 14.8826 20.0001 16.4087 20.0001 18ZM36.0001 36C35.5781 22.784 16.4181 22.788 16.0001 36C16.0001 36.5304 16.2109 37.0391 16.5859 37.4142C16.961 37.7893 17.4697 38 18.0001 38C18.5306 38 19.0393 37.7893 19.4144 37.4142C19.7894 37.0391 20.0001 36.5304 20.0001 36C20.0001 34.4087 20.6323 32.8826 21.7575 31.7573C22.8827 30.6321 24.4088 30 26.0001 30C27.5914 30 29.1176 30.6321 30.2428 31.7573C31.368 32.8826 32.0001 34.4087 32.0001 36C32.0001 36.5304 32.2108 37.0391 32.5859 37.4142C32.961 37.7893 33.4697 38 34.0001 38C34.5306 38 35.0393 37.7893 35.4144 37.4142C35.7894 37.0391 36.0001 36.5304 36.0001 36Z" fill="#343434"/>
</g>
<defs>
<clipPath id="clip0_2_43">
<rect width="48" height="48" fill="white"/>
</clipPath>
</defs>
</svg>
