<svg width="48" height="48" viewBox="0 0 48 48" fill="none" xmlns="http://www.w3.org/2000/svg">
<path d="M30 26C27.7909 26 26 27.7909 26 30V42C26 44.2091 27.7909 46 30 46H42C44.2091 46 46 44.2091 46 42V30C46 27.7909 44.2091 26 42 26H39C38.4477 26 38 26.4477 38 27V30C38 31.1046 37.1046 32 36 32C34.8954 32 34 31.1046 34 30V27C34 26.4477 33.5523 26 33 26H30Z" fill="#343434"/>
<path d="M6 26C3.79086 26 2 27.7909 2 30V42C2 44.2091 3.79086 46 6 46H18C20.2091 46 22 44.2091 22 42V30C22 27.7909 20.2091 26 18 26H15C14.4477 26 14 26.4477 14 27V30C14 31.1046 13.1046 32 12 32C10.8954 32 10 31.1046 10 30V27C10 26.4477 9.55228 26 9 26H6Z" fill="#343434"/>
<path d="M18 2C15.7909 2 14 3.79086 14 6V18C14 20.2091 15.7909 22 18 22H30C32.2091 22 34 20.2091 34 18V6C34 3.79086 32.2091 2 30 2H27C26.4477 2 26 2.44772 26 3V6C26 7.10457 25.1046 8 24 8C22.8954 8 22 7.10457 22 6V3C22 2.44772 21.5523 2 21 2H18Z" fill="#343434"/>
</svg>
