<svg width="48" height="48" viewBox="0 0 48 48" fill="none" xmlns="http://www.w3.org/2000/svg">
<g clip-path="url(#clip0_1_24)">
<path d="M14 0H8C3.58172 0 0 3.58172 0 8V14C0 18.4183 3.58172 22 8 22H14C18.4183 22 22 18.4183 22 14V8C22 3.58172 18.4183 0 14 0Z" fill="#343434"/>
<path d="M14 26H8C3.58172 26 0 29.5817 0 34V40C0 44.4183 3.58172 48 8 48H14C18.4183 48 22 44.4183 22 40V34C22 29.5817 18.4183 26 14 26Z" fill="#343434"/>
<path d="M40.0002 26H34.0002C29.5819 26 26.0002 29.5817 26.0002 34V40C26.0002 44.4183 29.5819 48 34.0002 48H40.0002C44.4184 48 48.0002 44.4183 48.0002 40V34C48.0002 29.5817 44.4184 26 40.0002 26Z" fill="#343434"/>
<path d="M28.0002 14H34.0002V20C34.0002 20.5304 34.2109 21.0391 34.586 21.4142C34.961 21.7893 35.4698 22 36.0002 22C36.5306 22 37.0393 21.7893 37.4144 21.4142C37.7895 21.0391 38.0002 20.5304 38.0002 20V14H44.0002C44.5306 14 45.0393 13.7893 45.4144 13.4142C45.7895 13.0391 46.0002 12.5304 46.0002 12C46.0002 11.4696 45.7895 10.9609 45.4144 10.5858C45.0393 10.2107 44.5306 9.99999 44.0002 9.99999H38.0002V3.99999C38.0002 3.46956 37.7895 2.96085 37.4144 2.58578C37.0393 2.21071 36.5306 1.99999 36.0002 1.99999C35.4698 1.99999 34.961 2.21071 34.586 2.58578C34.2109 2.96085 34.0002 3.46956 34.0002 3.99999V9.99999H28.0002C27.4698 9.99999 26.961 10.2107 26.586 10.5858C26.2109 10.9609 26.0002 11.4696 26.0002 12C26.0002 12.5304 26.2109 13.0391 26.586 13.4142C26.961 13.7893 27.4698 14 28.0002 14V14Z" fill="#343434"/>
</g>
<defs>
<clipPath id="clip0_1_24">
<rect width="48" height="48" fill="white"/>
</clipPath>
</defs>
</svg>
