<svg width="48" height="48" viewBox="0 0 48 48" fill="none" xmlns="http://www.w3.org/2000/svg">
<g clip-path="url(#clip0_2_16)">
<path d="M45.426 8.154C44.8634 7.47888 44.1591 6.9359 43.3631 6.56363C42.567 6.19136 41.6988 5.99893 40.82 6H8.484L8.4 5.298C8.2281 3.83884 7.52677 2.49346 6.42898 1.51696C5.33119 0.540447 3.91326 0.000683587 2.444 0L2 0C1.46957 0 0.960859 0.210714 0.585786 0.585786C0.210714 0.960859 0 1.46957 0 2C0 2.53043 0.210714 3.03914 0.585786 3.41421C0.960859 3.78929 1.46957 4 2 4H2.444C2.93387 4.00006 3.40667 4.17991 3.77274 4.50543C4.13881 4.83095 4.37269 5.2795 4.43 5.766L7.182 29.166C7.4677 31.5996 8.63696 33.8436 10.4678 35.472C12.2987 37.1005 14.6637 38.0001 17.114 38H38C38.5304 38 39.0391 37.7893 39.4142 37.4142C39.7893 37.0391 40 36.5304 40 36C40 35.4696 39.7893 34.9609 39.4142 34.5858C39.0391 34.2107 38.5304 34 38 34H17.114C15.8761 33.9965 14.6696 33.6102 13.6599 32.8941C12.6501 32.178 11.8866 31.1671 11.474 30H35.314C37.6586 30.0001 39.9287 29.1765 41.7276 27.6729C43.5266 26.1693 44.7401 24.0814 45.156 21.774L46.726 13.066C46.8827 12.202 46.8475 11.3141 46.6228 10.4653C46.3982 9.61642 45.9896 8.82735 45.426 8.154V8.154Z" fill="#343434"/>
<path d="M13.9998 48.0013C16.209 48.0013 17.9998 46.2104 17.9998 44.0013C17.9998 41.7921 16.209 40.0013 13.9998 40.0013C11.7907 40.0013 9.99984 41.7921 9.99984 44.0013C9.99984 46.2104 11.7907 48.0013 13.9998 48.0013Z" fill="#343434"/>
<path d="M34 48.0013C36.2091 48.0013 38 46.2104 38 44.0013C38 41.7921 36.2091 40.0013 34 40.0013C31.7909 40.0013 30 41.7921 30 44.0013C30 46.2104 31.7909 48.0013 34 48.0013Z" fill="#343434"/>
</g>
<defs>
<clipPath id="clip0_2_16">
<rect width="48" height="48" fill="white"/>
</clipPath>
</defs>
</svg>
